<svg clip-rule="evenodd" fill-rule="evenodd" stroke-linejoin="round" stroke-miterlimit="2" viewBox="0 0 510 510" xmlns="http://www.w3.org/2000/svg"><g><g><g id="CorelEMF"><path d="m47.663 501.064h272.798c2.863 0 5.331-1.024 7.353-3.047l49.502-49.501c2.022-2.022 3.047-4.491 3.047-7.353v-374.403c0-5.724-4.675-10.373-10.373-10.373h-322.327c-5.725 0-10.399 4.649-10.399 10.373v423.904c0 5.725 4.674 10.4 10.399 10.4z" fill="#eceff1"/><path d="m324.768 500.171v-49.502c0-2.862 2.337-5.2 5.2-5.2h49.502c-.499 1.103-1.235 2.127-2.154 3.047l-49.502 49.501c-.919.92-1.943 1.629-3.046 2.154z" fill="#a79ba7"/><path d="m47.663 501.064h10.373v-444.677h-10.373c-5.725 0-10.399 4.649-10.399 10.373v423.904c0 5.725 4.674 10.4 10.399 10.4z" fill="#d1d1d6"/></g></g><g><path d="m364.063 158.358c30.838 0 56.039-25.138 56.039-56.039 0-30.837-25.201-56.039-56.039-56.039-30.9 0-56.039 25.202-56.039 56.039 0 30.901 25.139 56.039 56.039 56.039z" fill="#f6dccd"/><path d="m364.063 46.28c30.964 0 56.039 25.138 56.039 56.039 0 30.964-25.075 56.039-56.039 56.039-1.519 0-3.039-.063-4.495-.127 28.874-2.343 51.543-26.468 51.543-55.912s-22.669-53.57-51.543-55.849c1.456-.127 2.976-.19 4.495-.19z" fill="#f1cbbc"/><path d="m300.742 109.474h126.579c4.686 0 8.485-3.862 8.485-8.485 0-4.686-3.799-8.485-8.485-8.485h-1.71c.127-1.583.19-3.229.19-4.876 0-27.418-17.919-50.72-42.741-58.761.95-9.689-11.018-12.791-18.997-12.791-8.041 0-19.946 3.102-19.059 12.791-24.759 8.041-42.742 31.343-42.742 58.761 0 1.647.063 3.293.19 4.876h-1.71c-4.685 0-8.485 3.799-8.485 8.485 0 4.623 3.8 8.485 8.485 8.485z" fill="#ffe177"/><g fill="#ffd064"><path d="m418.393 109.474h8.928c4.686 0 8.485-3.862 8.485-8.485 0-4.686-3.799-8.485-8.485-8.485h-1.71c.127-1.583.19-3.229.19-4.876 0-27.418-17.919-50.72-42.741-58.761.95-9.689-11.018-12.791-18.997-12.791-1.393 0-2.976.126-4.495.316 7.282 1.013 15.323 4.496 14.5 12.475 24.822 8.041 42.805 31.343 42.805 58.761 0 1.647-.063 3.293-.19 4.876h1.71c4.622 0 8.485 3.799 8.485 8.485 0 4.623-3.863 8.485-8.485 8.485z"/><path d="m356.402 60.907c.506 3.926-2.28 7.472-6.206 7.978-3.926.507-7.535-2.279-7.978-6.205l-4.243-32.484c-.063-.506-.126-.886-.126-1.139-.507-7.346 3.039-12.158 8.295-15.387 4.052-2.47 9.181-3.736 13.74-4.37 1.457-.19 2.66-.253 3.673-.316.38-.064.696-.064 1.076 0 1.013.063 2.153.19 3.546.316 4.623.634 9.688 1.9 13.741 4.37 5.319 3.229 8.802 8.041 8.358 15.387-.063.253-.063.633-.19 1.139v.19l-4.179 32.294c-.506 3.926-4.116 6.712-7.978 6.205-3.926-.506-6.712-4.052-6.206-7.978l4.179-32.357v-.19l.064-.253c.063-.95-.57-1.647-1.457-2.217-2.153-1.266-5.192-1.962-8.105-2.342-.696-.127-1.519-.19-2.343-.254-.886.064-1.709.127-2.342.254-2.913.38-6.016 1.076-8.106 2.342-.886.57-1.519 1.267-1.456 2.217v.253z" fill-rule="nonzero"/><path d="m339.178 92.504c0 3.926-3.229 7.155-7.155 7.155-3.989 0-7.219-3.229-7.219-7.155v-35.08c0-3.989 3.23-7.218 7.219-7.218 3.926 0 7.155 3.229 7.155 7.218zm64.081 0c0 3.926-3.229 7.155-7.155 7.155-3.989 0-7.219-3.229-7.219-7.155v-35.08c0-3.989 3.23-7.218 7.219-7.218 3.926 0 7.155 3.229 7.155 7.218z" fill-rule="nonzero"/></g><path d="m300.742 92.251h126.579c4.749 0 8.612 3.862 8.612 8.612 0 4.685-3.863 8.611-8.612 8.611h-126.579c-4.749 0-8.611-3.926-8.611-8.611 0-4.75 3.862-8.612 8.611-8.612z" fill="#ffe177"/><path d="m300.742 92.251h126.579c4.749 0 8.612 3.862 8.612 8.612 0 4.685-3.863 8.611-8.612 8.611h-2.026c-.19-4.622-3.989-8.295-8.612-8.295h-124.552v-.316c0-4.75 3.862-8.612 8.611-8.612z" fill="#ffd064"/><path d="m264.333 266.257h199.461c2.786 0 5.192-1.14 6.965-3.293 1.71-2.153 2.343-4.749 1.773-7.472-10.448-50.34-55.089-88.142-108.469-88.142-53.443 0-98.02 37.802-108.532 88.142-.57 2.723.064 5.319 1.837 7.472s4.179 3.293 6.965 3.293z" fill="#8ac9fe"/><path d="m445.811 266.257h17.983c2.786 0 5.192-1.14 6.965-3.293 1.71-2.153 2.343-4.749 1.773-7.472-10.448-50.34-55.089-88.142-108.469-88.142-3.039 0-6.015.126-8.991.379 49.39 3.926 89.662 40.273 99.54 87.763.57 2.723-.063 5.319-1.836 7.472s-4.179 3.293-6.965 3.293z" fill="#60b7ff"/><path d="m284.026 266.257h160.012v-64.777c-6.586-6.839-14.057-12.918-22.289-17.92v33.243h-115.434v-33.243c-8.169 5.002-15.704 11.081-22.289 17.92z" fill="#ffe177"/><path d="m426.118 266.257h17.92v-64.777c-6.586-6.839-14.057-12.918-22.289-17.92v13.677c1.52 1.393 2.976 2.786 4.369 4.243z" fill="#ffd064"/></g><g><path d="m173.207 98.546c6.963 1.657 13.609 4.413 19.697 8.164l12.8-5.678 15.08 15.08-5.678 12.8c3.751 6.088 6.506 12.734 8.163 19.697l13.061 5.027v21.336l-13.061 5.027c-1.657 6.953-4.412 13.6-8.163 19.688l5.678 12.799-15.08 15.09-12.8-5.688c-6.088 3.752-12.734 6.516-19.697 8.173l-5.027 13.051h-21.336l-5.027-13.06c-6.954-1.657-13.6-4.412-19.688-8.164l-12.8 5.688-15.089-15.09 5.687-12.79c-3.751-6.097-6.516-12.744-8.173-19.697l-13.051-5.027v-21.336l13.051-5.027c1.657-6.963 4.422-13.609 8.173-19.697l-5.687-12.8 15.089-15.08 12.791 5.678c6.097-3.751 12.743-6.507 19.697-8.164l5.027-13.06h21.336z" fill="#ffe177"/><path d="m201.403 102.94 4.301-1.908 15.08 15.08-5.678 12.8c3.751 6.088 6.506 12.734 8.163 19.697l13.061 5.027v21.336l-13.061 5.027c-1.657 6.953-4.412 13.6-8.163 19.688l5.678 12.799-15.08 15.09-4.301-1.908 13.181-13.182-5.687-12.799c3.751-6.088 6.506-12.735 8.163-19.688l13.061-5.027v-21.336l-13.061-5.027c-1.657-6.963-4.412-13.609-8.163-19.697l5.687-12.8zm-93.982 0 1.908-1.908 12.791 5.678c-.903.503-1.797 1.024-2.672 1.573zm65.786-4.394c6.963 1.657 13.609 4.413 19.697 8.164l-3.528 1.573c-6.088-3.751-15.415-8.08-22.378-9.737l-5.027-13.06h6.209zm-51.078 123.342-12.8 5.688-1.908-1.908 12.027-5.344c.875.54 1.769 1.062 2.681 1.564zm70.775 0c-6.088 3.752-12.734 6.516-19.697 8.173l-5.027 13.051h-6.209l5.027-13.051c6.963-1.657 16.29-5.985 22.387-9.737z" fill="#ffd064"/><path d="m157.512 118.476c25.311 0 45.827 20.517 45.827 45.828 0 25.301-20.516 45.818-45.827 45.818-25.302 0-45.818-20.517-45.818-45.818 0-25.311 20.516-45.828 45.818-45.828z" fill="#eceff1"/><path d="m157.512 118.476c1.042 0 2.076.038 3.109.112-23.859 1.592-42.728 21.448-42.728 45.716 0 24.259 18.869 44.114 42.728 45.716-1.033.065-2.067.102-3.109.102-25.302 0-45.818-20.517-45.818-45.818 0-25.311 20.516-45.828 45.818-45.828z" fill="#d1d1d6"/></g><g><g><path d="m109.469 274.685h58.043c4.168 0 7.573 3.405 7.573 7.573v58.043c0 4.168-3.405 7.573-7.573 7.573h-58.043c-4.168 0-7.573-3.405-7.573-7.573v-58.043c0-4.168 3.405-7.573 7.573-7.573z" fill="#8ac9fe"/><path d="m157.512 274.685h10c4.168 0 7.573 3.405 7.573 7.573v58.043c0 4.168-3.405 7.573-7.573 7.573h-10c4.168 0 7.573-3.405 7.573-7.573v-58.043c0-4.168-3.405-7.573-7.573-7.573z" fill="#60b7ff"/></g><path d="m117.972 314.848c-2.797-2.797-2.797-7.338 0-10.135s7.338-2.797 10.135 0l7.1 7.1 13.137-16.247c2.487-3.075 7.003-3.553 10.078-1.066 3.076 2.487 3.554 7.003 1.067 10.079l-18.145 22.439c-1.277 1.58-3.166 2.544-5.195 2.651s-4.008-.653-5.445-2.089z" fill="#a79ba7"/><g><path d="m109.469 379.158h58.043c4.168 0 7.573 3.43 7.573 7.598v58.043c0 4.168-3.405 7.573-7.573 7.573h-58.043c-4.168 0-7.573-3.405-7.573-7.573v-58.043c0-4.168 3.405-7.598 7.573-7.598z" fill="#ffe177"/><path d="m157.512 379.158h10c4.168 0 7.573 3.43 7.573 7.598v58.043c0 4.168-3.405 7.573-7.573 7.573h-10c4.168 0 7.573-3.405 7.573-7.573v-58.043c0-4.168-3.405-7.598-7.573-7.598z" fill="#ffd064"/></g><g fill="#a79ba7"><path d="m117.977 419.351c-2.799-2.794-2.804-7.335-.01-10.135s7.335-2.804 10.135-.01c0 0 7.1 7.086 7.1 7.086l13.142-16.253c2.487-3.075 7.003-3.553 10.078-1.066 3.076 2.487 3.554 7.003 1.067 10.078l-18.145 22.44c-1.277 1.579-3.163 2.542-5.191 2.65s-4.007-.649-5.444-2.084z"/><path d="m221.337 303.427c-3.955 0-7.166-3.211-7.166-7.166 0-3.956 3.211-7.167 7.166-7.167h95.019c3.955 0 7.167 3.211 7.167 7.167 0 3.955-3.212 7.166-7.167 7.166zm0 30.038c-3.955 0-7.166-3.211-7.166-7.166 0-3.956 3.211-7.167 7.166-7.167h61.855c3.955 0 7.167 3.211 7.167 7.167 0 3.955-3.212 7.166-7.167 7.166zm0 74.46c-3.955 0-7.166-3.211-7.166-7.166 0-3.956 3.211-7.167 7.166-7.167h95.019c3.955 0 7.167 3.211 7.167 7.167 0 3.955-3.212 7.166-7.167 7.166zm0 30.038c-3.955 0-7.166-3.211-7.166-7.166s3.211-7.167 7.166-7.167h61.855c3.955 0 7.167 3.212 7.167 7.167s-3.212 7.166-7.167 7.166z"/></g></g></g></svg>