<svg id="Capa_1" enable-background="new 0 0 512 512" viewBox="0 0 512 512" xmlns="http://www.w3.org/2000/svg"><g><g><path d="m239.618 38.123-16.316 24.149c-4.334 6.419-13.045 8.019-19.34 3.746-3.851-2.609-5.984-6.8-6.12-11.115-.065-2.076-2.085-3.515-4.073-2.913-36.896 11.194-70.615 32.35-96.817 61.108-25.836 28.331-43.625 63.267-51.507 100.512-1.505 7.113-8.28 11.833-15.484 10.853l-.006-.001c-8.003-1.089-13.441-8.741-11.766-16.641 8.919-42.06 29.006-81.505 58.164-113.494 30.449-33.4 69.866-57.715 112.951-70.06 1.855-.532 2.855-2.579 2.032-4.325-2.027-4.295-1.809-9.513 1.046-13.739 4.314-6.378 12.972-8.05 19.34-3.746l24.159 16.316c3.055 2.074 5.17 5.274 5.872 8.896.703 3.632-.061 7.389-2.135 10.454z" fill="#00f2a6"/><path d="m509.612 211.635-16.316 24.149c-2.074 3.065-5.274 5.181-8.906 5.882-3.622.702-7.379-.072-10.444-2.136l-24.149-16.316c-6.419-4.334-8.019-13.055-3.746-19.35 2.608-3.851 6.799-5.984 11.115-6.12 2.076-.065 3.516-2.086 2.913-4.073-11.195-36.887-32.35-70.606-61.108-96.817-27.292-24.888-60.705-42.301-96.414-50.599-7.408-1.721-12.075-9.049-10.479-16.485 1.638-7.634 9.225-12.409 16.829-10.64 40.309 9.379 78.029 29.041 108.837 57.135 33.399 30.438 57.714 69.863 70.059 112.947.532 1.856 2.581 2.856 4.326 2.031 4.295-2.029 9.513-1.806 13.738 1.04 6.377 4.315 8.049 12.974 3.745 19.352z" fill="#6cf5c2"/><path d="m272.382 473.877 16.316-24.149c4.334-6.419 13.045-8.019 19.34-3.746 3.851 2.609 5.984 6.8 6.12 11.115.065 2.076 2.085 3.515 4.073 2.913 36.896-11.194 70.615-32.35 96.817-61.108 25.836-28.331 43.625-63.267 51.507-100.512 1.505-7.113 8.28-11.832 15.484-10.853l.006.001c8.003 1.089 13.441 8.741 11.766 16.641-8.919 42.06-29.006 81.505-58.164 113.494-30.449 33.4-69.866 57.715-112.951 70.06-1.855.532-2.855 2.579-2.032 4.325 2.027 4.295 1.809 9.513-1.046 13.739-4.314 6.378-12.972 8.05-19.34 3.746l-24.159-16.316c-3.055-2.074-5.17-5.274-5.872-8.896-.703-3.632.061-7.389 2.135-10.454z" fill="#00f2a6"/><path d="m2.388 300.365 16.316-24.149c2.074-3.065 5.274-5.181 8.906-5.882 3.622-.702 7.379.072 10.444 2.136l24.149 16.316c6.419 4.334 8.019 13.055 3.746 19.35-2.608 3.851-6.799 5.984-11.115 6.12-2.076.065-3.516 2.086-2.912 4.073 11.195 36.887 32.35 70.606 61.108 96.817 27.292 24.888 60.705 42.301 96.414 50.599 7.408 1.721 12.075 9.049 10.479 16.485-1.638 7.634-9.225 12.409-16.829 10.64-40.309-9.379-78.029-29.041-108.837-57.135-33.399-30.438-57.713-69.863-70.059-112.947-.532-1.856-2.581-2.856-4.326-2.031-4.295 2.029-9.513 1.806-13.738-1.04-6.378-4.315-8.05-12.974-3.746-19.352z" fill="#6cf5c2"/></g><path d="m386.662 287.048-12.243-7.351c-2.889-1.734-4.507-5.013-4.059-8.352.673-5.019 1.022-10.141 1.022-15.345s-.349-10.326-1.022-15.345c-.448-3.339 1.17-6.618 4.059-8.352l12.243-7.351c12.04-7.229 15.94-22.85 8.711-34.89l-15.25-25.399c-7.229-12.04-22.849-15.94-34.889-8.711l-12.251 7.356c-2.939 1.765-6.627 1.562-9.411-.439-6.661-4.786-13.856-8.874-21.479-12.159-3.095-1.334-5.075-4.41-5.075-7.781v-14.267c0-14.044-11.385-25.428-25.428-25.428h-29.625c-14.044 0-25.428 11.385-25.428 25.428v14.267c0 3.37-1.98 6.447-5.075 7.781-7.623 3.285-14.818 7.373-21.479 12.159-2.784 2-6.472 2.203-9.411.439l-12.251-7.355c-12.04-7.229-27.661-3.329-34.889 8.711l-15.25 25.399c-7.229 12.04-3.329 27.661 8.711 34.89l12.243 7.351c2.889 1.734 4.507 5.013 4.059 8.352-.673 5.019-1.022 10.141-1.022 15.345s.349 10.326 1.022 15.345c.448 3.339-1.17 6.618-4.059 8.352l-12.243 7.351c-12.04 7.229-15.94 22.85-8.711 34.89l15.249 25.398c7.229 12.04 22.85 15.94 34.89 8.711l12.25-7.355c2.939-1.765 6.627-1.562 9.411.439 6.661 4.786 13.856 8.874 21.479 12.159 3.095 1.334 5.075 4.41 5.075 7.781v14.267c0 14.044 11.385 25.428 25.428 25.428h29.625c14.044 0 25.428-11.385 25.428-25.428v-14.269c0-3.37 1.98-6.447 5.075-7.781 7.623-3.285 14.818-7.373 21.479-12.159 2.784-2 6.472-2.203 9.411-.439l12.251 7.356c12.04 7.229 27.66 3.329 34.889-8.711l15.25-25.399c7.231-12.04 3.331-27.66-8.71-34.889z" fill="#7ca1b1"/><g><path d="m248.668 186.227h-8.698c-20.293 0-36.745 16.451-36.745 36.745v39.282l82.187-1.16 11.401-38.122c0-20.294-20.739-36.745-48.145-36.745z" fill="#ffd15b"/><path d="m273.586 186.227h-24.918c20.294 0 36.744 16.451 36.744 36.744v38.122l24.918-5.812v-32.31c0-20.293-16.451-36.744-36.744-36.744z" fill="#ffc344"/><path d="m263.775 175.094h-13.994c-5.653 0-10.236 4.583-10.236 10.236v76.925l34.465-6.972v-69.953c0-5.653-4.582-10.236-10.235-10.236z" fill="#ffe177"/><path d="m287.848 282.767h-87.059c-7.59 0-13.743-6.153-13.743-13.743 0-7.59 6.153-13.743 13.743-13.743h87.059c7.59 0 29.849 6.153 29.849 13.743.001 7.591-22.259 13.743-29.849 13.743z" fill="#ffe177"/><path d="m312.766 255.282h-24.918c7.59 0 13.742 6.153 13.742 13.742 0 7.59-6.153 13.743-13.742 13.743h24.918c7.59 0 13.742-6.153 13.742-13.743.001-7.589-6.152-13.742-13.742-13.742z" fill="#ffd15b"/></g><path d="m386.662 287.048-12.243-7.351c-2.888-1.734-4.507-5.013-4.059-8.352.673-5.019 1.022-10.141 1.022-15.345s-.349-10.326-1.022-15.345c-.448-3.339 1.17-6.618 4.059-8.352l12.243-7.351c12.04-7.229 15.94-22.85 8.711-34.89l-15.25-25.399c-7.229-12.04-22.849-15.94-34.889-8.711l-12.251 7.356c-2.939 1.765-6.627 1.562-9.411-.439-6.661-4.786-13.856-8.874-21.479-12.159-3.095-1.334-5.075-4.41-5.075-7.781v-14.267c0-14.044-11.385-25.428-25.428-25.428h-29.625c-5.477 0-10.545 1.737-14.696 4.683 61.172 16.774 106.432 76.71 106.432 148.082 0 71.373-45.26 131.308-106.432 148.082 4.151 2.946 9.219 4.683 14.696 4.683h29.625c14.044 0 25.428-11.385 25.428-25.428v-14.266c0-3.37 1.98-6.447 5.075-7.781 7.623-3.285 14.818-7.373 21.479-12.159 2.784-2 6.472-2.203 9.411-.439l12.251 7.355c12.04 7.229 27.661 3.329 34.89-8.712l15.249-25.398c7.23-12.038 3.33-27.659-8.711-34.888z" fill="#678d98"/><path d="m267.704 320.711 2.501-2.501c3.018-3.018 3.018-7.909.001-10.927-3.018-3.018-7.91-3.018-10.927 0l-2.502 2.502-2.502-2.502c-3.017-3.019-7.909-3.017-10.927 0-3.017 3.018-3.017 7.909.001 10.927l2.501 2.501-2.501 2.5c-3.018 3.018-3.018 7.909-.001 10.927 1.509 1.509 3.486 2.263 5.464 2.263 1.977 0 3.955-.755 5.463-2.263l2.502-2.502 2.502 2.502c1.508 1.509 3.486 2.263 5.463 2.263 1.978 0 3.955-.755 5.464-2.263 3.017-3.018 3.017-7.909-.001-10.927z" fill="#6cf5c2"/></g><g/><g/><g/><g/><g/><g/><g/><g/><g/><g/><g/><g/><g/><g/><g/></svg>