<svg id="svg8" height="64" viewBox="0 0 16.933333 16.933334" width="64" xmlns="http://www.w3.org/2000/svg" xmlns:svg="http://www.w3.org/2000/svg"><g id="layer1-0"><path id="path12340" d="m.793747 2.9104018v8.7312402c0 .43973.35401.79375.79375.79375h13.75834c.43973 0 .79375-.35402.79375-.79375v-8.7312402z" fill="#e4eff8"/><path id="path12923" d="m.793757 2.9104018v.26458h15.34583v-.26458z" fill="#c4dcf0"/><path id="path12502" d="m33 14c-5.804069.047622-1.924276 2.391451-7.025391 4.564453-5.101156 2.172964-4.084113-2.25666-7.96875 1.710938-3.884632 3.967596.510369 2.871036-1.566406 8.029297-2.076737 5.158185-4.47896 1.303648-4.431641 6.867187.047245 5.563541 2.382718 1.667197 4.546876 6.789063 1.324957 3.135748.188454 3.969274.011718 5.039062h32.867188c-.176743-1.069788-1.313262-1.903314.011718-5.039062 2.164158-5.121866 4.499556-1.225522 4.546876-6.789063.047244-5.563539-2.354866-1.709002-4.431641-6.867187-2.076737-5.158261 2.318268-4.061701-1.566406-8.029297-3.884637-3.967598-2.867601.462026-7.96875-1.710938-5.101153-2.173002-1.221284-4.516944-7.025391-4.564453z" fill="#c4dcf0" transform="scale(.265)"/><path id="path12343" d="m11.545887 2.3675318v.00077l-1.873439 3.2056001v.00101c-.39425.6761956.132439 1.5692657.902259 1.5688156h3.74714c.76982.0004498 1.29677-.89262.90251-1.5688201v-.00101l-1.8737-3.2055956h-.001c-.18059-.30778-.50299-.49949-.90365-.51495-.39896.0176-.72026.20791-.90012.51418z" fill="#c4dcf0" font-variant-ligatures="normal" font-variant-position="normal" font-variant-caps="normal" font-variant-numeric="normal" font-variant-alternates="normal" font-feature-settings="normal" text-indent="0" text-align="start" text-decoration-line="none" text-decoration-style="solid" text-decoration-color="#000000" text-transform="none" text-orientation="mixed" white-space="normal" shape-padding="0" isolation="auto" mix-blend-mode="normal" solid-color="#000000" solid-opacity="1" vector-effect="none"/><path id="path12345" d="m15.683797 2.9104218c-1.43929 9.4547602-11.371625 9.0940102-14.7991 9.0940102.13165.25532.39469.43099.7028.43099h13.75833c.43974 0 .79375-.35402.79375-.79375v-8.7312502z" fill="#c4dcf0"/><path id="path12347" d="m10.251308 13.900002c1.359259-.55171 1.070319.61581 2.115829-.41618 1.04552-1.03199-.12204-.76186.45057-2.11702.5726-1.35516 1.19051-.32446 1.20303-1.7964803.0125-1.4720198-.62283-.45207-1.17231-1.8168397-.54947-1.3647901.61333-1.0746801-.41449-2.1244401-1.02781-1.0497601-.75877.1225399-2.10845-.4523899-1.349679-.5749401-.32316-1.1953602-1.85883-1.2079301-1.535659.012599-.50914.63299-1.85881 1.2079301-1.349679.5749298-1.08065-.5973702-2.108459.4523899-1.027811 1.04976.134989.75965-.414491 2.1244401-.54947 1.3647697-1.18482.3448199-1.1723 1.8168397.0125 1.4720203.630431.4413203 1.20303 1.7964803.572601 1.35516-.59495 1.08503.45057 2.11702 1.0455 1.03199.75657-.13553 2.115831.41618 1.35925.5517.343429 1.18967 1.784629 1.17707 1.441211.0126.42539-.62537 1.784651-1.17707z" fill="#549ad4"/><path id="path12349" d="m4.317048 7.408332c-.0419.00005-.0827.006-.12402.009-.0246.1007402-.0569.2094302-.108011.3364101-.16432.4081402-.33603.60111-.49609.7131402h.64492l.26458.7937504-.26458.7937503h-1.28054c.13197.667159.57066.25894 1.01596 1.020609.11378.022.22917.0376.347781.0377.546579-.000792 1.055379-.242029 1.401459-.644408l1.160661.11524.111099-2.1166607h-1.00201c-.306259-.6456413-.95662-1.0575214-1.671209-1.0583413z" fill="#3588cb"/><path id="path12351" d="m9.789589 9.7895657v4.2007773c.0603-.0302.123457-.06063.196887-.09043.367038-.148984.609645-.169336.794785-.144696.08397-.0097.161006-.01357.227374-.0078.188323-.459748.368454-1.111983.368454-2.370397v-1.5874543z" fill="#3588cb" paint-order="stroke markers fill"/><path id="circle12353" d="m11.853456 9.472209c0 1.870474-1.516319 3.386793-3.3867926 3.386793-1.8704741 0-3.3867929-1.516319-3.3867927-3.386793 0-1.870474 1.5163187-3.3867927 3.3867927-3.3867927 1.8704736.0000001 3.3867926 1.5163188 3.3867926 3.3867927z" fill="#e4eff8"/><path id="path12355" d="m8.466668 6.085422c-1.8705385-.0000488-3.3869236 1.5163312-3.386881 3.3868697.00114 1.0236553.4652097 1.9918723 1.26246 2.6339503-.4749018-.598765-.7333335-1.340548-.73329-2.10478-.0000483-1.8705387 1.5163323-3.3869233 3.386871-3.38688.7730913.00104 1.522558.2665498 2.123899.7524099-.64247-.8096391-1.6194814-1.2815883-2.653059-1.2815699z" fill="#c4dcf0"/><path id="path12359" d="m8.466668 3.9687518c-.159561.00101-.286071.010599-.39584.024299.947009.1180899.253439.6681599 1.46295 1.1833899.56354.2400499.841289.1753101 1.052649.0951-.0802-.024601-.165599-.0545-.260959-.0951-1.34968-.5749401-.32313-1.1951099-1.8588-1.20768zm3.294889 1.2061302c-.16877-.016301-.296.077-.48835.1317699.10274.0709.22139.1717299.36897.3224601 1.02782 1.0497598-.13502.7596299.41445 2.12442.54948 1.3647697 1.18504.3449299 1.17254 1.8169497-.0125 1.4720103-.63043.4411103-1.20303 1.7962703-.57261 1.35516.5949 1.08519-.45062 2.11718-.14268.14083-.25911.23757-.35967.30644.35811.11405.48201.35425 1.15135-.30644 1.04552-1.03199-.12199-.76202.45062-2.11718.5726-1.35516 1.19051-.32426 1.20303-1.7962703.0125-1.4720198-.62306-.45218-1.17254-1.8169497-.54947-1.3647901.61338-1.0746602-.41444-2.12442-.32119-.32805-.51544-.4390501-.67231-.45423zm-1.691369 8.57053c-.15864.008-.35544.0511-.610301.15452-1.206519.4897-.5458 1.04617-1.389059 1.15652.10677.014.233839.0221.39584.0207 1.44121.0126.42512-.62548 1.784379-1.17718.0869-.0353.167131-.063.241331-.0853-.11103-.0426-.239871-.0789-.42219-.0692z" fill="#3588cb"/><path id="path12361" d="m.793747 2.9104318v-1.32293c0-.43973.35401-.79375.79375-.79375h13.75833c.43974 0 .79375.35402.79375.79375v1.32293z" fill="#549ad4"/><path id="path1026" d="m6.085418 1.8520834h9.013199c.14658 0 .26458.118.26458.26458 0 .14658-.118.26459-.26458.26459h-9.013199c-.14658 0-.26459-.11801-.26459-.26459 0-.14658.11801-.26458.26459-.26458z" fill="#3588cb"/><path id="path12363" d="m15.664147.8604118c-1.26261 1.9918401-10.90165 1.78542-10.90165 1.78542l-.198439.26459h11.575519v-1.32292c0-.32624-.19527-.60477-.47543-.72709z" fill="#3588cb"/><path id="path12365" d="m1.322907 2.9104318v-1.32293c0-.43973.35401-.79375.79375-.79375h3.43958c.00001.00002.00001 2.11668.00001 2.11668z" fill="#3588cb"/><path id="path12367" d="m.793747 2.9104318v-1.32293c0-.43973.35401-.79375.79375-.79375h3.439581c.000009.00002.000009 2.11668.000009 2.11668z" fill="#ffca28"/><path id="path12369" d="m4.924757.7937518c-.58404 1.90519-3.28754 1.9143601-4.13101 1.86965v.24702h4.233331s.000009-2.11665 0-2.11667z" fill="#ecb200"/><path id="path12380" d="m5.718688 10.732662c-.34608.40238-.855031.64363-1.401611.64442-.71441-.001-1.36452-.41286-1.6707-1.05834h1.5875l.264581-.7937503-.264581-.79375h-1.58802c.30626-.6456398.95663-1.0574998 1.67122-1.0583298.714591.0008202 1.36496.41269 1.67122 1.0583298h1.00197l-.11108 2.1166803z" fill="#ffca28"/><path id="path12382" d="m7.408328 8.7312417h4.233339c.43973 0 .79375.35402.79375.79375 0 .43974-.35402.7937503-.79375.7937503h-.59954z" fill="#ffca28"/><path id="path12384" d="m11.603937 8.7312517c.12626.14046.20516.32457.20516.52917 0 .43052-.34.7767503-.76688.7911603v.26717h.59945c.43973 0 .79375-.3540103.79375-.7937503 0-.43973-.35402-.79375-.79375-.79375z" fill="#ecb200"/><path id="path12386" d="m6.664167 8.7312517c-.368259 1.7482303-2.35245 2.2130203-3.36566 2.3362903.29673.19645.6484.30903 1.018541.30954.546579-.000793 1.055379-.24202 1.401459-.6444l1.160661.11524.11108-2.1166703z" fill="#ecb200"/><g fill="#e4eff8"><path id="circle12388" d="m2.1166684 1.8520461c0 .1461254-.1184579.2645834-.2645833.2645834s-.2645833-.118458-.2645833-.2645834c0-.1461253.118458-.2645833.2645833-.2645833s.2645833.118458.2645833.2645833z"/><path id="circle12390" d="m3.1750028 1.8520461c0 .1461254-.1184579.2645834-.2645833.2645834s-.2645834-.118458-.2645834-.2645834.118458-.2645833.2645834-.2645833c.1461253 0 .2645833.118458.2645833.2645833z"/><path id="circle12392" d="m4.2333371 1.8520461c0 .1461254-.1184579.2645834-.2645833.2645834s-.2645833-.118458-.2645833-.2645834c0-.1461253.118458-.2645833.2645833-.2645833s.2645833.118458.2645833.2645833z"/><path id="path12394" d="m6.085418 1.5875018h9.013199c.14658 0 .26458.118.26458.26458 0 .14658-.118.26459-.26458.26459h-9.013199c-.14658 0-.26459-.11801-.26459-.26459 0-.14658.11801-.26458.26459-.26458z"/></g><path id="path12396" d="m11.268287 2.3675318v.00077l-1.873439 3.2056001v.00101c-.394251.6761956.132439 1.5692657.90225 1.5688156h3.747139c.76983.0004498 1.29677-.89262.90251-1.5688201v-.00101l-1.87369-3.2055956h-.001c-.18059-.30778-.503-.49949-.90365-.51495-.39897.0176-.72026.20791-.90012.51418z" fill="#ff5151" font-variant-ligatures="normal" font-variant-position="normal" font-variant-caps="normal" font-variant-numeric="normal" font-variant-alternates="normal" font-feature-settings="normal" text-indent="0" text-align="start" text-decoration-line="none" text-decoration-style="solid" text-decoration-color="#000000" text-transform="none" text-orientation="mixed" white-space="normal" shape-padding="0" isolation="auto" mix-blend-mode="normal" solid-color="#000000" solid-opacity="1" vector-effect="none"/><path id="path12398" d="m13.548527 3.1812019c.10556 3.4676201-2.48441 3.74626-4.00751 3.6116701.186471.2105898.451621.35106.756031.3508799h3.747049c.76982.0004498 1.29705-.8926899.90279-1.5689001v-.00101z" fill="#ff2929"/><path id="ellipse12400" d="m12.435115 6.0854139c0 .1461253-.118455.2645833-.264577.2645835-.146122-.0000002-.264577-.1184582-.264577-.2645835 0-.1461252.118455-.2645832.264577-.2645834.146122.0000002.264577.1184582.264577.2645834z" fill="#c4dcf0"/><path id="path12402" d="m12.699697 3.9687518c0 .5291701-.52915 1.3229202-.52915 1.3229202s-.52916-.7937501-.52916-1.3229202c0-.29225.23692-.52916.52916-.52916.29223 0 .52915.23691.52915.52916z" fill="#e4eff8"/><path id="path12405" d="m12.170547 3.4395918c.29223 0 .52915.23691.52915.52916 0 .5291701-.52915 1.3229202-.52915 1.3229202z" fill="#c4dcf0"/><path id="rect12407" d="m-7.4083365 8.4666548c.2931588 0 .5291674.2360086.5291674.5291673v1.0583089c0 .293158-.2360086.529167-.5291674.529167-.2931587 0-.5291673-.236009-.5291673-.529167v-1.0583089c0-.2931587.2360086-.5291673.5291673-.5291673z" fill="#ffd1b5" transform="scale(-1 1)"/><path id="path12409" d="m6.879168 9.7895817v.2645903c0 .29316.235999.52916.52916.52916.293159 0 .529169-.236.529169-.52916v-.2645903c-.0437.00019-.0858 0-.132289 0z" fill="#ffb98d"/><path id="path12509" d="m7.404737 8.4666519c-.25576 0-.46781.1796198-.517799.4201298.072-.0366.152189-.0594.238749-.0594.29316 0 .529161.23601.529161.52916v1.0583403c0 .0376-.004.0742-.0119.10955.17205-.0872.29094-.26349.29094-.47025v-1.0583403c0-.29315-.23601-.5291597-.52917-.5291597z" fill="#ffb98d"/><path id="path12413" d="m6.606827 10.054172c-.909149 0-1.05058.79374-1.05058 2.11666 0 1.32308.79375 1.85209.79375 2.91042h.79375.529171 2.645829l.264581-1.05833.529169-1.5875v-2.10934h-2.65927c-.0609-.3027-.32685-.27191-.648019-.27191z" fill="#ffd1b5"/><path id="path12415" d="m8.070177 10.317582c.224451 0 .396491.17203.396491.39648s-.17204.39844-.396491.39844h-.92578c-.352859 0-.352859.5293 0 .5293h.92578c1.45482-.39857 0-2.6949603 0-1.32422z" fill="#ffb98d" font-variant-ligatures="normal" font-variant-position="normal" font-variant-caps="normal" font-variant-numeric="normal" font-variant-alternates="normal" font-feature-settings="normal" text-indent="0" text-align="start" text-decoration-line="none" text-decoration-style="solid" text-decoration-color="#000000" text-transform="none" text-orientation="mixed" white-space="normal" shape-padding="0" isolation="auto" mix-blend-mode="normal" solid-color="#000000" solid-opacity="1" vector-effect="none"/><path id="path12417" d="m7.667967 11.112502c-.14541.0027-.2614266.122155-.25977.26758v.5293c0 .33302-.15563.64566-.42187.8457-.2999735.208251.031468.652228.316401.42383.398899-.29972.634769-.77058.634769-1.26953v-.5293c.0017-.149246-.1203-.270365-.26953-.26758z" fill="#ffb98d" font-variant-ligatures="normal" font-variant-position="normal" font-variant-caps="normal" font-variant-numeric="normal" font-variant-alternates="normal" font-feature-settings="normal" text-indent="0" text-align="start" text-decoration-line="none" text-decoration-style="solid" text-decoration-color="#000000" text-transform="none" text-orientation="mixed" white-space="normal" shape-padding="0" isolation="auto" mix-blend-mode="normal" solid-color="#000000" solid-opacity="1" vector-effect="none"/><path id="path12419" d="m9.434057 8.8883358c-.293159 0-.52917.2360098-.52917.5291698v.7027764c0 .29316.236011.52917.52917.52917.29316 0 .529171-.23601.529171-.52917v-.7027764c0-.29316-.236011-.5291698-.529171-.5291698z" fill="#ffb98d"/><path id="rect12424" d="m-9.5250061 8.4666548c.2931587 0 .5291673.2360086.5291673.5291673v1.0583089c0 .293158-.2360086.529167-.5291673.529167s-.5291669-.236009-.5291669-.529167v-1.0583089c0-.2931587.2360082-.5291673.5291669-.5291673z" fill="#ffd1b5" transform="scale(-1 1)"/><path id="path12517" d="m10.484118 8.8883358c-.29316 0-.529171.2360098-.529171.5291698v.7027764c0 .29316.236011.52917.529171.52917s.529169-.23601.529169-.52917v-.7027764c0-.29316-.236009-.5291698-.529169-.5291698z" fill="#ffb98d"/><path id="rect12429" d="m-10.58334 8.4666548c.293159 0 .529168.2360086.529168.5291673v1.0583089c0 .293158-.236009.529167-.529168.529167-.293158 0-.529167-.236009-.529167-.529167v-1.0583089c0-.2931587.236009-.5291673.529167-.5291673z" fill="#ffd1b5" transform="scale(-1 1)"/><path id="path12433" d="m6.342237 14.907622c.005.0565.008.11405.008.17363h.79375.529171 2.645829c0-.53065.79375-1.3387.79375-2.64583v-2.11667c0 1.32292-.327269 4.51164-4.770299 4.58887z" fill="#ffb98d"/><path id="path12435" d="m7.842418 10.049002v.12092c0 .29316.235999.52917.52916.52917.12925 0 .24575-.0476.337449-.12403h-.2558c-.0585-.2907-.306799-.50905-.610809-.52606z" fill="#ffb98d"/><path id="rect12437" d="m-8.4666708 8.4666548c.2931587 0 .5291673.2360086.5291673.5291673v1.0583089c0 .293158-.2360086.529167-.5291673.529167s-.5291674-.236009-.5291674-.529167v-1.0583089c0-.2931587.2360087-.5291673.5291674-.5291673z" fill="#ffd1b5" transform="scale(-1 1)"/><path id="rect12441" d="m6.085438-15.874982h4.497916v1.058334h-4.497916-.0000002v-1.058334z" fill="#427096" transform="scale(1 -1)" paint-order="stroke markers fill"/><path id="path12443" d="m9.260418 14.816672v1.05833h1.32291v-1.05833z" fill="#365b7a" paint-order="stroke markers fill"/><path id="path12445" d="m6.085418 15.610422h4.49791c.14658 0 .264589.118.264589.26458 0 .14658-.118009.26458-.264589.26458h-4.49791c-.14658 0-.26459-.118-.26459-.26458 0-.14658.11801-.26458.26459-.26458z" fill="#427096"/><path id="path12447" d="m9.260418 15.610422v.52916h1.32291c.14658 0 .264589-.118.264589-.26458s-.118009-.26458-.264589-.26458z" fill="#365b7a" paint-order="stroke markers fill"/><path id="rect12506" d="m8.466672 8.4666495c-.255762 0-.467807.1796252-.517797.4201292.07199-.03654.152191-.05943.238744-.05943.293158 0 .529167.236008.529167.529167v1.0583333c0 .03762-.0045.07419-.01188.109553.17205-.08715.290933-.263488.290933-.470254v-1.0583343c0-.293158-.236008-.5291662-.529167-.5291662z" fill="#ffb98d"/><path id="path12511" d="m9.528628 8.4666519c-.25576 0-.467811.1796198-.5178.4201298.072-.0366.15219-.0594.23875-.0594.293149 0 .52916.23601.52916.52916v1.0583403c0 .0376-.004.0742-.0119.10955.17205-.0872.29094-.26349.29094-.47025v-1.0583403c0-.29315-.23601-.5291597-.52917-.5291597z" fill="#ffb98d"/><path id="path12513" d="m10.583338 8.4666519c-.25576 0-.46781.1796198-.517801.4201298.072-.0366.152191-.0594.23875-.0594.293151 0 .52916.23601.52916.52916v1.0583403c0 .0376-.004.0742-.0119.10955.17205-.0872.29094-.26349.29094-.47025v-1.0583403c0-.29315-.23601-.5291597-.52917-.5291597z" fill="#ffb98d"/></g></svg>