<svg id="Layer_1" viewBox="0 0 512 512" xmlns="http://www.w3.org/2000/svg" data-name="Layer 1"><path d="m469.153 8h-426.305c-19.215 0-34.848 15.633-34.848 34.848v407.029c0 19.215 15.633 34.848 34.848 34.848h284.484l8.902 19.276h29.014l8.902-19.276h95.003c19.215 0 34.848-15.633 34.848-34.848v-407.029c0-19.215-15.633-34.848-34.848-34.848z" fill="#e1efff"/><path d="m440.968 366.171-8.787-21.209 8.638-23.384-20.524-20.524-23.413 8.609-21.179-8.787-10.456-22.639h-29.014l-10.456 22.639-21.209 8.787-23.384-8.609-20.524 20.524 8.609 23.384-8.787 21.209-22.639 10.456v29.013l22.639 10.456 8.787 21.179-8.609 23.414 20.524 20.524 23.384-8.639 21.209 8.788 10.456 22.639h29.014l10.456-22.639 21.179-8.788 23.413 8.639 20.524-20.524-8.638-23.414 8.787-21.179 22.639-10.456v-29.013zm-90.228 55.619c-16.904 0-30.657-13.752-30.657-30.656s13.753-30.657 30.657-30.657 30.656 13.753 30.656 30.657-13.752 30.656-30.656 30.656z" fill="#585966"/><path d="m220.329 229.504-7.447-17.962 7.298-19.779-17.366-17.396-19.809 7.298-17.932-7.417-8.847-19.184h-24.575l-8.847 19.184-17.962 7.417-19.779-7.298-17.396 17.396 7.298 19.779-7.417 17.962-19.183 8.847v24.575l19.183 8.847 7.417 17.932-7.298 19.809 17.396 17.367 19.779-7.298 17.962 7.447 8.847 19.154h24.575l8.847-19.154 17.932-7.447 19.809 7.298 17.366-17.367-7.298-19.809 7.447-17.932 19.154-8.847v-24.575zm-76.399 45.223c-13.29 0-24.103-10.813-24.103-24.103s10.813-24.103 24.103-24.103 24.118 10.812 24.118 24.103-10.819 24.103-24.118 24.103z" fill="#efc30c"/><path d="m469.153 8h-426.305c-19.215 0-34.848 15.633-34.848 34.848v64.517h496v-64.517c0-19.215-15.633-34.848-34.848-34.848z" fill="#a6dbff"/><path d="m84.835 69.682c6.633 0 12.019-5.386 12.019-11.991s-5.386-12.019-12.019-12.019-11.991 5.414-11.991 12.019 5.386 11.991 11.991 11.991z" fill="#ff6d7a" fill-rule="evenodd"/><path d="m122.452 69.682c6.605 0 11.991-5.386 11.991-11.991s-5.386-12.019-11.991-12.019-12.019 5.414-12.019 12.019 5.414 11.991 12.019 11.991z" fill="#ffde76" fill-rule="evenodd"/><path d="m160.039 69.682c6.605 0 11.991-5.386 11.991-11.991s-5.386-12.019-11.991-12.019-11.991 5.414-11.991 12.019 5.386 11.991 11.991 11.991z" fill="#9dcc6b" fill-rule="evenodd"/><path d="m427.15 69.692h-197.435c-6.627 0-12-5.373-12-12s5.373-12 12-12h197.435c6.627 0 12 5.373 12 12s-5.373 12-12 12z" fill="#8bcdf2"/><path d="m482 107.364v342.512c0 19.215-15.633 34.848-34.848 34.848h22c19.215 0 34.848-15.633 34.848-34.848v-342.512z" fill="#cadbed"/><path d="m469.153 8h-22c19.215 0 34.848 15.633 34.848 34.848v64.517h22v-64.517c0-19.215-15.633-34.848-34.848-34.848z" fill="#8bcdf2"/><path d="m391.05 311.807 5.832-2.144-21.179-8.787-10.456-22.639h-11l10.456 22.639z" fill="#4d4f5b"/><path d="m391.06 470.425-26.357 10.936-10.456 22.639h11l10.456-22.639 21.179-8.787z" fill="#4d4f5b"/><path d="m440.968 366.171-8.787-21.209 8.639-23.384-20.524-20.524-8.043 2.958 17.567 17.566-8.639 23.384 8.787 21.209 22.639 10.456v29.013l-22.639 10.456-8.787 21.179 8.639 23.413-17.56 17.559 8.036 2.965 20.524-20.524-8.639-23.413 8.787-21.179 22.639-10.456v-29.013z" fill="#4d4f5b"/><path d="m177.715 183.613 5.289-1.949-17.932-7.417-8.847-19.184h-10l8.847 19.184z" fill="#e2b705"/><path d="m177.705 317.63-22.633 9.4-8.847 19.153h10l8.847-19.153 17.932-7.447z" fill="#e2b705"/><path d="m220.329 229.504-7.447-17.963 7.298-19.779-17.366-17.396-7.312 2.694 14.678 14.702-7.298 19.779 7.447 17.963 19.154 8.847v24.575l-19.154 8.847-7.447 17.932 7.298 19.809-14.674 14.674 7.308 2.693 17.366-17.367-7.298-19.809 7.447-17.932 19.154-8.847v-24.575z" fill="#e2b705"/><path d="m350.741 445.79c-30.138 0-54.657-24.519-54.657-54.656s24.519-54.657 54.657-54.657 54.656 24.52 54.656 54.657-24.519 54.656-54.656 54.656zm0-85.313c-16.904 0-30.657 13.753-30.657 30.657s13.752 30.656 30.657 30.656 30.656-13.752 30.656-30.656-13.752-30.657-30.656-30.657z" fill="#424551"/><path d="m143.922 298.726c-26.524 0-48.103-21.579-48.103-48.104s21.579-48.103 48.103-48.103 48.133 21.579 48.133 48.103-21.592 48.104-48.133 48.104zm0-72.206c-13.291 0-24.103 10.812-24.103 24.103s10.812 24.104 24.103 24.104 24.133-10.812 24.133-24.104-10.826-24.103-24.133-24.103z" fill="#d3ab05"/><g fill="#b0ccdd"><path d="m362.626 205.311h-49.657c-6.627 0-12-5.373-12-12s5.373-12 12-12h49.657c6.627 0 12 5.373 12 12s-5.373 12-12 12z"/><path d="m436.798 243.559h-123.829c-6.627 0-12-5.373-12-12s5.373-12 12-12h123.829c6.627 0 12 5.373 12 12s-5.373 12-12 12z"/><path d="m436.798 205.311h-35.09c-6.627 0-12-5.373-12-12s5.373-12 12-12h35.09c6.627 0 12 5.373 12 12s-5.373 12-12 12z"/><path d="m436.798 167.063h-123.829c-6.627 0-12-5.373-12-12s5.373-12 12-12h123.829c6.627 0 12 5.373 12 12s-5.373 12-12 12z"/></g></svg>